<svg width="42" height="42" viewBox="0 0 42 42" fill="none" xmlns="http://www.w3.org/2000/svg">
<path fill-rule="evenodd" clip-rule="evenodd" d="M0.833313 4.20301C0.833313 3.30932 1.18833 2.45224 1.82027 1.8203C2.4522 1.18837 3.30929 0.833348 4.20298 0.833348H37.7933C38.2362 0.832625 38.6749 0.919263 39.0842 1.0883C39.4936 1.25734 39.8656 1.50547 40.1789 1.81846C40.4923 2.13146 40.7408 2.50319 40.9103 2.91237C41.0798 3.32154 41.1669 3.76013 41.1666 4.20301V37.7933C41.1671 38.2363 41.0803 38.675 40.911 39.0844C40.7418 39.4938 40.4935 39.8658 40.1803 40.1791C39.8672 40.4924 39.4953 40.7409 39.0861 40.9104C38.6768 41.0798 38.2381 41.1669 37.7951 41.1667H4.20298C3.76031 41.1667 3.32199 41.0795 2.91304 40.91C2.50409 40.7405 2.13254 40.4922 1.81962 40.1791C1.50669 39.866 1.25852 39.4943 1.08929 39.0853C0.920054 38.6762 0.833073 38.2378 0.833313 37.7952V4.20301ZM16.798 16.2113H22.2595V18.954C23.0478 17.3773 25.0645 15.9583 28.095 15.9583C33.9048 15.9583 35.2816 19.0988 35.2816 24.861V35.5347H29.4021V26.1737C29.4021 22.892 28.6138 21.0403 26.6118 21.0403C23.8343 21.0403 22.6793 23.0368 22.6793 26.1737V35.5347H16.798V16.2113ZM6.71465 35.2835H12.596V15.9583H6.71465V35.2817V35.2835ZM13.4375 9.65535C13.4486 10.1589 13.359 10.6596 13.1739 11.1281C12.9889 11.5966 12.7121 12.0233 12.3599 12.3834C12.0077 12.7435 11.5871 13.0295 11.1228 13.2249C10.6585 13.4202 10.1599 13.5208 9.65623 13.5208C9.15254 13.5208 8.65393 13.4202 8.18965 13.2249C7.72537 13.0295 7.30477 12.7435 6.95256 12.3834C6.60034 12.0233 6.32358 11.5966 6.13854 11.1281C5.9535 10.6596 5.86389 10.1589 5.87498 9.65535C5.89675 8.66691 6.30469 7.7263 7.01144 7.03494C7.71819 6.34358 8.66756 5.95645 9.65623 5.95645C10.6449 5.95645 11.5943 6.34358 12.301 7.03494C13.0078 7.7263 13.4157 8.66691 13.4375 9.65535Z" fill="black"/>
</svg>
